# This file uses centimeters as units for non-parametric coordinates.

g default
v 0.806845 0.051289 0.518248
v 0.787255 -0.000000 0.549946
v 0.806845 -0.051289 0.518248
v 0.838543 -0.031698 0.466960
v 0.838543 0.031698 0.466960
v 0.466960 -0.838543 0.031698
v 0.466960 -0.838543 -0.031698
v 0.518248 -0.806845 -0.051289
v 0.549946 -0.787255 -0.000000
v 0.518248 -0.806845 0.051289
v 0.787255 0.000000 -0.549946
v 0.806845 0.051289 -0.518248
v 0.838543 0.031698 -0.466960
v 0.838543 -0.031698 -0.466960
v 0.806845 -0.051289 -0.518248
v 0.466960 0.838543 -0.031698
v 0.466960 0.838543 0.031698
v 0.518248 0.806845 0.051289
v 0.549946 0.787255 0.000000
v 0.518248 0.806845 -0.051289
v 0.000000 -0.549946 -0.787255
v -0.051289 -0.518248 -0.806845
v -0.031698 -0.466960 -0.838543
v 0.031698 -0.466960 -0.838543
v 0.051289 -0.518248 -0.806845
v -0.051289 0.518248 -0.806845
v 0.000000 0.549946 -0.787255
v 0.051289 0.518248 -0.806845
v 0.031698 0.466960 -0.838543
v -0.031698 0.466960 -0.838543
v -0.051289 -0.518248 0.806845
v 0.000000 -0.549946 0.787255
v 0.051289 -0.518248 0.806845
v 0.031698 -0.466960 0.838543
v -0.031698 -0.466960 0.838543
v 0.000000 0.549946 0.787255
v -0.051289 0.518248 0.806845
v -0.031698 0.466960 0.838543
v 0.031698 0.466960 0.838543
v 0.051289 0.518248 0.806845
v -0.806845 0.051289 -0.518248
v -0.787255 0.000000 -0.549946
v -0.806845 -0.051289 -0.518248
v -0.838543 -0.031698 -0.466960
v -0.838543 0.031698 -0.466960
v -0.466960 -0.838543 -0.031698
v -0.466960 -0.838543 0.031698
v -0.518248 -0.806845 0.051289
v -0.549946 -0.787255 -0.000000
v -0.518248 -0.806845 -0.051289
v -0.806845 -0.051289 0.518248
v -0.787255 -0.000000 0.549946
v -0.806845 0.051289 0.518248
v -0.838543 0.031698 0.466960
v -0.838543 -0.031698 0.466960
v -0.466960 0.838543 0.031698
v -0.466960 0.838543 -0.031698
v -0.518248 0.806845 -0.051289
v -0.549946 0.787255 0.000000
v -0.518248 0.806845 0.051289
vt 0.090909 0.737579
vt 0.989837 0.422877
vt 0.535292 0.589544
vt 0.454545 0.737579
vt 0.717110 0.589544
vt 0.272727 0.737579
vt 0.909091 0.262421
vt 0.646526 0.410456
vt 0.727273 0.262421
vt 0.464708 0.410456
vt 0.181818 0.262421
vt 0.010163 0.577123
vt 0.006172 0.572017
vt 0.010163 0.589544
vt 0.909091 0.570912
vt 0.278900 0.738684
vt 0.357464 0.594649
vt 0.636364 0.737579
vt 0.630191 0.738684
vt 0.551627 0.594649
vt 0.818182 0.737579
vt 0.097082 0.738684
vt 0.171655 0.589544
vt 0.175646 0.594649
vt 0.737435 0.577123
vt 0.717110 0.577123
vt 0.555617 0.589544
vt 0.824354 0.405351
vt 0.902919 0.261316
vt 0.828345 0.422877
vt 0.989837 0.410456
vt 0.808019 0.410456
vt 0.646526 0.422877
vt 0.373799 0.589544
vt 0.555617 0.577123
vt 0.630191 0.405351
vt 0.545455 0.262421
vt 0.551627 0.261316
vt 0.626201 0.410456
vt 0.464708 0.422877
vt 0.191981 0.589544
vt 0.090909 0.429088
vt 0.191981 0.577123
vt 0.097082 0.405351
vt 0.175646 0.261316
vt 0.101072 0.422877
vt 0.262565 0.410456
vt 0.373799 0.577123
vt 0.448373 0.405351
vt 0.363636 0.570912
vt 0.272727 0.429088
vt 0.282890 0.410456
vt 0.278900 0.405351
vt 0.357464 0.261316
vt 0.906910 0.587332
vt 0.902919 0.594649
vt 0.898928 0.589544
vt 0.898928 0.577123
vt 0.820363 0.746001
vt 0.816001 0.746001
vt 0.812009 0.738684
vt 0.824354 0.738684
vt 0.729454 0.587332
vt 0.727273 0.570912
vt 0.737435 0.589544
vt 0.733445 0.594649
vt 0.828345 0.410456
vt 0.818182 0.429088
vt 0.808019 0.422877
vt 0.549817 0.583333
vt 0.535292 0.577123
vt 0.545455 0.570912
vt 0.636364 0.429088
vt 0.626201 0.422877
vt 0.177456 0.583333
vt 0.171655 0.577123
vt 0.181818 0.570912
vt 0.088728 0.420665
vt 0.101072 0.410456
vt 0.084737 0.427983
vt 0.450183 0.416667
vt 0.454545 0.429088
vt 0.444383 0.422877
vt 0.444383 0.410456
vt 0.353474 0.589544
vt 0.353474 0.577123
vt 0.262565 0.422877
vt 0.277089 0.416667
vt 0.282890 0.422877
vt 0.361455 0.253999
vt 0.365817 0.253999
vt 0.369809 0.261316
vt 0.363636 0.262421
vn 0.356822 0.000000 0.934172
vn 0.356822 0.000000 0.934172
vn 0.356822 0.000000 0.934172
vn 0.577350 -0.577350 0.577350
vn 0.577350 -0.577350 0.577350
vn 0.577350 -0.577350 0.577350
vn 0.934172 -0.356822 0.000000
vn 0.934172 -0.356822 0.000000
vn 0.934172 -0.356822 0.000000
vn 0.934172 0.356822 0.000000
vn 0.934172 0.356822 0.000000
vn 0.934172 0.356822 0.000000
vn 0.577350 0.577350 0.577350
vn 0.577350 0.577350 0.577350
vn 0.577350 0.577350 0.577350
vn 0.000000 -0.934172 -0.356822
vn 0.000000 -0.934172 -0.356822
vn 0.000000 -0.934172 -0.356822
vn 0.577350 -0.577350 -0.577350
vn 0.577350 -0.577350 -0.577350
vn 0.577350 -0.577350 -0.577350
vn 0.000000 -0.934172 0.356822
vn 0.000000 -0.934172 0.356822
vn 0.000000 -0.934172 0.356822
vn 0.577350 0.577350 -0.577350
vn 0.577350 0.577350 -0.577350
vn 0.577350 0.577350 -0.577350
vn 0.356822 0.000000 -0.934172
vn 0.356822 0.000000 -0.934172
vn 0.356822 0.000000 -0.934172
vn 0.000000 0.934172 0.356822
vn 0.000000 0.934172 0.356822
vn 0.000000 0.934172 0.356822
vn 0.000000 0.934172 -0.356822
vn 0.000000 0.934172 -0.356822
vn 0.000000 0.934172 -0.356822
vn -0.577350 -0.577350 -0.577350
vn -0.577350 -0.577350 -0.577350
vn -0.577350 -0.577350 -0.577350
vn -0.356822 0.000000 -0.934172
vn -0.356822 0.000000 -0.934172
vn -0.356822 0.000000 -0.934172
vn -0.577350 0.577350 -0.577350
vn -0.577350 0.577350 -0.577350
vn -0.577350 0.577350 -0.577350
vn -0.356822 0.000000 0.934172
vn -0.356822 0.000000 0.934172
vn -0.356822 0.000000 0.934172
vn -0.577350 -0.577350 0.577350
vn -0.577350 -0.577350 0.577350
vn -0.577350 -0.577350 0.577350
vn -0.577350 0.577350 0.577350
vn -0.577350 0.577350 0.577350
vn -0.577350 0.577350 0.577350
vn -0.934172 -0.356822 0.000000
vn -0.934172 -0.356822 0.000000
vn -0.934172 -0.356822 0.000000
vn -0.934172 0.356822 0.000000
vn -0.934172 0.356822 0.000000
vn -0.934172 0.356822 0.000000
vn 0.500000 0.309017 0.809017
vn 0.500000 0.309017 0.809017
vn 0.500000 0.309017 0.809017
vn 0.500000 0.309017 0.809017
vn 0.500000 -0.309017 0.809017
vn 0.500000 -0.309017 0.809017
vn 0.500000 -0.309017 0.809017
vn 0.500000 -0.309017 0.809017
vn 0.809017 -0.500000 0.309017
vn 0.809017 -0.500000 0.309017
vn 0.809017 -0.500000 0.309017
vn 0.809017 -0.500000 0.309017
vn 1.000000 0.000000 0.000000
vn 1.000000 0.000000 0.000000
vn 1.000000 0.000000 0.000000
vn 1.000000 0.000000 0.000000
vn 0.809017 0.500000 0.309017
vn 0.809017 0.500000 0.309017
vn 0.809017 0.500000 0.309017
vn 0.809017 0.500000 0.309017
vn 0.000000 -1.000000 0.000000
vn 0.000000 -1.000000 0.000000
vn 0.000000 -1.000000 0.000000
vn 0.000000 -1.000000 0.000000
vn 0.309017 -0.809017 -0.500000
vn 0.309017 -0.809017 -0.500000
vn 0.309017 -0.809017 -0.500000
vn 0.309017 -0.809017 -0.500000
vn 0.809017 -0.500000 -0.309017
vn 0.809017 -0.500000 -0.309017
vn 0.809017 -0.500000 -0.309017
vn 0.809017 -0.500000 -0.309017
vn 0.309017 -0.809017 0.500000
vn 0.309017 -0.809017 0.500000
vn 0.309017 -0.809017 0.500000
vn 0.309017 -0.809017 0.500000
vn 0.500000 0.309017 -0.809017
vn 0.500000 0.309017 -0.809017
vn 0.500000 0.309017 -0.809017
vn 0.500000 0.309017 -0.809017
vn 0.809017 0.500000 -0.309017
vn 0.809017 0.500000 -0.309017
vn 0.809017 0.500000 -0.309017
vn 0.809017 0.500000 -0.309017
vn 0.500000 -0.309017 -0.809017
vn 0.500000 -0.309017 -0.809017
vn 0.500000 -0.309017 -0.809017
vn 0.500000 -0.309017 -0.809017
vn 0.000000 1.000000 0.000000
vn 0.000000 1.000000 0.000000
vn 0.000000 1.000000 0.000000
vn 0.000000 1.000000 0.000000
vn 0.309017 0.809017 0.500000
vn 0.309017 0.809017 0.500000
vn 0.309017 0.809017 0.500000
vn 0.309017 0.809017 0.500000
vn 0.309017 0.809017 -0.500000
vn 0.309017 0.809017 -0.500000
vn 0.309017 0.809017 -0.500000
vn 0.309017 0.809017 -0.500000
vn -0.309017 -0.809017 -0.500000
vn -0.309017 -0.809017 -0.500000
vn -0.309017 -0.809017 -0.500000
vn -0.309017 -0.809017 -0.500000
vn -0.500000 -0.309017 -0.809017
vn -0.500000 -0.309017 -0.809017
vn -0.500000 -0.309017 -0.809017
vn -0.500000 -0.309017 -0.809017
vn 0.000000 0.000000 -1.000000
vn 0.000000 0.000000 -1.000000
vn 0.000000 0.000000 -1.000000
vn 0.000000 0.000000 -1.000000
vn -0.309017 0.809017 -0.500000
vn -0.309017 0.809017 -0.500000
vn -0.309017 0.809017 -0.500000
vn -0.309017 0.809017 -0.500000
vn -0.500000 0.309017 -0.809017
vn -0.500000 0.309017 -0.809017
vn -0.500000 0.309017 -0.809017
vn -0.500000 0.309017 -0.809017
vn -0.309017 -0.809017 0.500000
vn -0.309017 -0.809017 0.500000
vn -0.309017 -0.809017 0.500000
vn -0.309017 -0.809017 0.500000
vn 0.000000 0.000000 1.000000
vn 0.000000 0.000000 1.000000
vn 0.000000 0.000000 1.000000
vn 0.000000 0.000000 1.000000
vn -0.500000 -0.309017 0.809017
vn -0.500000 -0.309017 0.809017
vn -0.500000 -0.309017 0.809017
vn -0.500000 -0.309017 0.809017
vn -0.309017 0.809017 0.500000
vn -0.309017 0.809017 0.500000
vn -0.309017 0.809017 0.500000
vn -0.309017 0.809017 0.500000
vn -0.500000 0.309017 0.809017
vn -0.500000 0.309017 0.809017
vn -0.500000 0.309017 0.809017
vn -0.500000 0.309017 0.809017
vn -0.809017 -0.500000 -0.309017
vn -0.809017 -0.500000 -0.309017
vn -0.809017 -0.500000 -0.309017
vn -0.809017 -0.500000 -0.309017
vn -1.000000 0.000000 0.000000
vn -1.000000 0.000000 0.000000
vn -1.000000 0.000000 0.000000
vn -1.000000 0.000000 0.000000
vn -0.809017 0.500000 -0.309017
vn -0.809017 0.500000 -0.309017
vn -0.809017 0.500000 -0.309017
vn -0.809017 0.500000 -0.309017
vn -0.809017 -0.500000 0.309017
vn -0.809017 -0.500000 0.309017
vn -0.809017 -0.500000 0.309017
vn -0.809017 -0.500000 0.309017
vn -0.809017 0.500000 0.309017
vn -0.809017 0.500000 0.309017
vn -0.809017 0.500000 0.309017
vn -0.809017 0.500000 0.309017
vn 0.850651 0.000000 0.525731
vn 0.850651 0.000000 0.525731
vn 0.850651 0.000000 0.525731
vn 0.850651 0.000000 0.525731
vn 0.850651 0.000000 0.525731
vn 0.525731 -0.850651 0.000001
vn 0.525731 -0.850651 0.000001
vn 0.525731 -0.850651 0.000001
vn 0.525731 -0.850651 0.000001
vn 0.525731 -0.850651 0.000001
vn 0.850651 -0.000000 -0.525731
vn 0.850651 -0.000000 -0.525731
vn 0.850651 -0.000000 -0.525731
vn 0.850651 -0.000000 -0.525731
vn 0.850651 -0.000000 -0.525731
vn 0.525731 0.850651 -0.000001
vn 0.525731 0.850651 -0.000001
vn 0.525731 0.850651 -0.000001
vn 0.525731 0.850651 -0.000001
vn 0.525731 0.850651 -0.000001
vn 0.000000 -0.525731 -0.850651
vn 0.000000 -0.525731 -0.850651
vn 0.000000 -0.525731 -0.850651
vn 0.000000 -0.525731 -0.850651
vn 0.000000 -0.525731 -0.850651
vn 0.000000 0.525731 -0.850651
vn 0.000000 0.525731 -0.850651
vn 0.000000 0.525731 -0.850651
vn 0.000000 0.525731 -0.850651
vn 0.000000 0.525731 -0.850651
vn 0.000000 -0.525731 0.850651
vn 0.000000 -0.525731 0.850651
vn 0.000000 -0.525731 0.850651
vn 0.000000 -0.525731 0.850651
vn 0.000000 -0.525731 0.850651
vn 0.000000 0.525731 0.850651
vn 0.000000 0.525731 0.850651
vn 0.000000 0.525731 0.850651
vn 0.000000 0.525731 0.850651
vn 0.000000 0.525731 0.850651
vn -0.850651 0.000000 -0.525731
vn -0.850651 0.000000 -0.525731
vn -0.850651 0.000000 -0.525731
vn -0.850651 0.000000 -0.525731
vn -0.850651 0.000000 -0.525731
vn -0.525731 -0.850651 -0.000001
vn -0.525731 -0.850651 -0.000001
vn -0.525731 -0.850651 -0.000001
vn -0.525731 -0.850651 -0.000001
vn -0.525731 -0.850651 -0.000001
vn -0.850651 0.000000 0.525731
vn -0.850651 0.000000 0.525731
vn -0.850651 0.000000 0.525731
vn -0.850651 0.000000 0.525731
vn -0.850651 0.000000 0.525731
vn -0.525731 0.850651 0.000001
vn -0.525731 0.850651 0.000001
vn -0.525731 0.850651 0.000001
vn -0.525731 0.850651 0.000001
vn -0.525731 0.850651 0.000001
s off
g pSolid1
f 39/42/1 34/76/2 2/12/3
f 33/23/4 10/1/5 3/14/6
f 9/21/7 14/65/8 4/57/9
f 13/25/10 19/68/11 5/58/12
f 18/30/13 40/2/14 1/15/15
f 46/34/16 21/3/17 7/4/18
f 25/27/19 15/5/20 8/18/21
f 32/41/22 47/85/23 6/6/24
f 28/33/25 20/69/26 12/64/27
f 24/35/28 29/73/29 11/26/30
f 56/7/31 36/31/32 17/67/33
f 27/8/34 57/9/35 16/32/36
f 50/48/37 43/82/38 22/71/39
f 42/40/40 30/74/41 23/72/42
f 41/10/43 58/37/44 26/39/45
f 38/46/46 52/87/47 35/77/48
f 51/51/49 48/86/50 31/43/51
f 60/11/52 53/47/53 37/79/54
f 49/50/55 55/89/56 44/83/57
f 54/52/58 59/93/59 45/84/60
f 2/12/61 1/13/62 40/80/63 39/42/64
f 3/14/65 2/12/66 34/76/67 33/23/68
f 4/57/69 3/56/70 10/62/71 9/21/72
f 5/58/73 4/57/74 14/65/75 13/25/76
f 1/15/77 5/58/78 19/68/79 18/30/80
f 7/16/81 6/6/82 47/85/83 46/17/84
f 8/18/85 7/19/86 21/20/87 25/27/88
f 9/21/89 8/61/90 15/66/91 14/65/92
f 6/22/93 10/1/94 33/23/95 32/24/96
f 12/64/97 11/26/98 29/73/99 28/33/100
f 13/25/101 12/64/102 20/69/103 19/68/104
f 11/26/105 15/5/106 25/27/107 24/35/108
f 17/67/109 16/28/110 57/29/111 56/7/112
f 18/30/113 17/67/114 36/31/115 40/2/116
f 16/32/117 20/69/118 28/33/119 27/8/120
f 22/71/121 21/3/122 46/34/123 50/48/124
f 23/72/125 22/71/126 43/82/127 42/40/128
f 24/35/129 23/72/130 30/74/131 29/73/132
f 27/36/133 26/39/134 58/37/135 57/38/136
f 26/39/137 30/74/138 42/40/139 41/10/140
f 32/41/141 31/43/142 48/86/143 47/85/144
f 35/77/145 34/76/146 39/42/147 38/46/148
f 31/43/149 35/77/150 52/87/151 51/51/152
f 37/79/153 36/44/154 56/45/155 60/11/156
f 38/46/157 37/79/158 53/47/159 52/87/160
f 44/83/161 43/82/162 50/48/163 49/50/164
f 45/84/165 44/83/166 55/89/167 54/52/168
f 41/49/169 45/84/170 59/93/171 58/92/172
f 49/50/173 48/86/174 51/51/175 55/89/176
f 54/52/177 53/53/178 60/54/179 59/93/180
f 1/15/181 2/55/182 3/56/183 4/57/184 5/58/185
f 6/59/186 7/60/187 8/61/188 9/21/189 10/62/190
f 11/63/191 12/64/192 13/25/193 14/65/194 15/66/195
f 16/32/196 17/67/197 18/30/198 19/68/199 20/69/200
f 21/70/201 22/71/202 23/72/203 24/35/204 25/27/205
f 26/39/206 27/8/207 28/33/208 29/73/209 30/74/210
f 31/43/211 32/75/212 33/23/213 34/76/214 35/77/215
f 36/78/216 37/79/217 38/46/218 39/42/219 40/80/220
f 41/81/221 42/40/222 43/82/223 44/83/224 45/84/225
f 46/34/226 47/85/227 48/86/228 49/50/229 50/48/230
f 51/51/231 52/87/232 53/88/233 54/52/234 55/89/235
f 56/90/236 57/91/237 58/92/238 59/93/239 60/54/240
