# This file uses centimeters as units for non-parametric coordinates.

g default
v 0.806845 0.051289 0.518248
v 0.787255 -0.000000 0.549946
v 0.806845 -0.051289 0.518248
v 0.838543 -0.031698 0.466960
v 0.838543 0.031698 0.466960
v 0.466960 -0.838543 0.031698
v 0.466960 -0.838543 -0.031698
v 0.518248 -0.806845 -0.051289
v 0.549946 -0.787255 -0.000000
v 0.518248 -0.806845 0.051289
v 0.787255 0.000000 -0.549946
v 0.806845 0.051289 -0.518248
v 0.838543 0.031698 -0.466960
v 0.838543 -0.031698 -0.466960
v 0.806845 -0.051289 -0.518248
v 0.466960 0.838543 -0.031698
v 0.466960 0.838543 0.031698
v 0.518248 0.806845 0.051289
v 0.549946 0.787255 0.000000
v 0.518248 0.806845 -0.051289
v 0.000000 -0.549946 -0.787255
v -0.051289 -0.518248 -0.806845
v -0.031698 -0.466960 -0.838543
v 0.031698 -0.466960 -0.838543
v 0.051289 -0.518248 -0.806845
v -0.051289 0.518248 -0.806845
v 0.000000 0.549946 -0.787255
v 0.051289 0.518248 -0.806845
v 0.031698 0.466960 -0.838543
v -0.031698 0.466960 -0.838543
v -0.051289 -0.518248 0.806845
v 0.000000 -0.549946 0.787255
v 0.051289 -0.518248 0.806845
v 0.031698 -0.466960 0.838543
v -0.031698 -0.466960 0.838543
v 0.000000 0.549946 0.787255
v -0.051289 0.518248 0.806845
v -0.031698 0.466960 0.838543
v 0.031698 0.466960 0.838543
v 0.051289 0.518248 0.806845
v -0.806845 0.051289 -0.518248
v -0.787255 0.000000 -0.549946
v -0.806845 -0.051289 -0.518248
v -0.838543 -0.031698 -0.466960
v -0.838543 0.031698 -0.466960
v -0.466960 -0.838543 -0.031698
v -0.466960 -0.838543 0.031698
v -0.518248 -0.806845 0.051289
v -0.549946 -0.787255 -0.000000
v -0.518248 -0.806845 -0.051289
v -0.806845 -0.051289 0.518248
v -0.787255 -0.000000 0.549946
v -0.806845 0.051289 0.518248
v -0.838543 0.031698 0.466960
v -0.838543 -0.031698 0.466960
v -0.466960 0.838543 0.031698
v -0.466960 0.838543 -0.031698
v -0.518248 0.806845 -0.051289
v -0.549946 0.787255 0.000000
v -0.518248 0.806845 0.051289
vt 0.498857 0.832785
vt 0.118437 0.077084
vt 0.879523 0.135619
vt 0.499689 0.831980
vt 0.878531 0.135619
vt 0.498578 0.831980
vt 0.498124 0.831948
vt 0.546402 0.920114
vt 0.498039 0.832115
vt 0.877922 0.135993
vt 0.498870 0.832612
vt 0.119023 0.077994
vt 0.897850 0.160365
vt 0.119023 0.136423
vt 0.499224 0.831844
vt 0.527613 0.837178
vt 0.897182 0.159635
vt 0.498697 0.831980
vt 0.469662 0.837178
vt 0.100094 0.159636
vt 0.499597 0.831979
vt 0.527892 0.837983
vt 0.451386 0.919488
vt 0.897461 0.160440
vt 0.118853 0.136109
vt 0.450879 0.861059
vt 0.118763 0.077679
vt 0.896859 0.159681
vt 0.527158 0.837152
vt 0.546492 0.861685
vt 0.118426 0.135514
vt 0.450881 0.920113
vt 0.546402 0.861685
vt 0.547537 0.919488
vt 0.118762 0.136108
vt 0.099480 0.159859
vt 0.497953 0.832281
vt 0.468917 0.837473
vt 0.450790 0.920114
vt 0.975177 0.135483
vt 0.118745 0.135619
vt 0.071552 0.164697
vt 0.546997 0.861059
vt 0.897604 0.160345
vt 0.527904 0.837816
vt 0.119358 0.135483
vt 0.119171 0.136177
vt 0.547537 0.861058
vt 0.099394 0.160025
vt 0.499731 0.831844
vt 0.072092 0.164697
vt 0.119898 0.077053
vt 0.896602 0.160179
vt 0.526901 0.837650
vt 0.488965 0.909083
vt 0.898202 0.159635
vt 0.879431 0.135619
vt 0.451419 0.861059
vt 0.509857 0.871600
vt 0.489338 0.871600
vt 0.470562 0.837178
vt 0.528633 0.837178
vt 0.081307 0.088085
vt 0.071047 0.165323
vt 0.119764 0.135619
vt 0.100993 0.159635
vt 0.878093 0.135661
vt 0.498686 0.832470
vt 0.118352 0.077250
vt 0.091476 0.106894
vt 0.450339 0.861058
vt 0.070957 0.165324
vt 0.498597 0.832470
vt 0.118266 0.077416
vt 0.478672 0.890273
vt 0.451386 0.861059
vt 0.071201 0.165323
vt 0.061293 0.125078
vt 0.878838 0.136325
vt 0.528311 0.837925
vt 0.906851 0.106268
vt 0.927371 0.164697
vt 0.118181 0.077582
vt 0.118169 0.136011
vt 0.878411 0.135619
vt 0.451926 0.861058
vt 0.119182 0.077748
vt 0.092612 0.106268
vt 0.119898 0.135483
vt 0.508120 0.872068
vt 0.487600 0.872064
vt 0.468831 0.837639
vt 0.497867 0.832446
vt 0.042517 0.159499
vt 0.499276 0.832727
vt 0.119411 0.136383
vt 0.879078 0.136350
vt 0.878690 0.077994
vt 0.878690 0.136423
vt 0.878411 0.077189
vt 0.451926 0.919488
vt 0.118744 0.077189
vt 0.119856 0.135619
vt 0.119856 0.077189
vt 0.879524 0.077189
vt 0.118864 0.135619
vt 0.118864 0.077190
vt 0.878531 0.077190
vt 0.100082 0.053663
vt 0.118853 0.077679
vt 0.119764 0.077189
vt 0.879431 0.077190
vt 0.451419 0.919488
vt 0.470189 0.943504
vt 0.877848 0.077729
vt 0.877836 0.136159
vt 0.879565 0.077053
vt 0.879565 0.135483
vt 0.878850 0.077896
vt 0.119358 0.077053
vt 0.118255 0.135846
vt 0.877978 0.135483
vt 0.878019 0.077398
vt 0.878007 0.135827
vt 0.118340 0.135679
vt 0.878518 0.135483
vt 0.878104 0.077232
vt 0.546492 0.920114
vt 0.879025 0.135483
vt 0.877933 0.077563
vt 0.879058 0.135483
vt 0.119007 0.136108
vt 0.499192 0.831844
vt 0.451035 0.861685
vt 0.024287 0.135483
vt 0.498841 0.832470
vt 0.878674 0.136109
vt 0.498718 0.832470
vt 0.118312 0.135483
vt 0.118885 0.136109
vt 0.498145 0.831844
vt 0.878552 0.136109
vt 0.023151 0.136109
vt 0.450790 0.861685
vt 0.070506 0.164697
vt 0.071045 0.164697
vt 0.118851 0.135483
vt 0.878430 0.136108
vt 0.450881 0.861685
vt 0.498685 0.831844
vt 0.071585 0.164697
vt 0.119391 0.135483
vt 0.878520 0.136108
vn 0.356822 0.000000 0.934172
vn 0.356822 0.000000 0.934172
vn 0.356822 0.000000 0.934172
vn 0.577350 -0.577350 0.577350
vn 0.577350 -0.577350 0.577350
vn 0.577350 -0.577350 0.577350
vn 0.934172 -0.356822 0.000000
vn 0.934172 -0.356822 0.000000
vn 0.934172 -0.356822 0.000000
vn 0.934172 0.356822 0.000000
vn 0.934172 0.356822 0.000000
vn 0.934172 0.356822 0.000000
vn 0.577350 0.577350 0.577350
vn 0.577350 0.577350 0.577350
vn 0.577350 0.577350 0.577350
vn 0.000000 -0.934172 -0.356822
vn 0.000000 -0.934172 -0.356822
vn 0.000000 -0.934172 -0.356822
vn 0.577350 -0.577350 -0.577350
vn 0.577350 -0.577350 -0.577350
vn 0.577350 -0.577350 -0.577350
vn 0.000000 -0.934172 0.356822
vn 0.000000 -0.934172 0.356822
vn 0.000000 -0.934172 0.356822
vn 0.577350 0.577350 -0.577350
vn 0.577350 0.577350 -0.577350
vn 0.577350 0.577350 -0.577350
vn 0.356822 0.000000 -0.934172
vn 0.356822 0.000000 -0.934172
vn 0.356822 0.000000 -0.934172
vn 0.000000 0.934172 0.356822
vn 0.000000 0.934172 0.356822
vn 0.000000 0.934172 0.356822
vn 0.000000 0.934172 -0.356822
vn 0.000000 0.934172 -0.356822
vn 0.000000 0.934172 -0.356822
vn -0.577350 -0.577350 -0.577350
vn -0.577350 -0.577350 -0.577350
vn -0.577350 -0.577350 -0.577350
vn -0.356822 0.000000 -0.934172
vn -0.356822 0.000000 -0.934172
vn -0.356822 0.000000 -0.934172
vn -0.577350 0.577350 -0.577350
vn -0.577350 0.577350 -0.577350
vn -0.577350 0.577350 -0.577350
vn -0.356822 0.000000 0.934172
vn -0.356822 0.000000 0.934172
vn -0.356822 0.000000 0.934172
vn -0.577350 -0.577350 0.577350
vn -0.577350 -0.577350 0.577350
vn -0.577350 -0.577350 0.577350
vn -0.577350 0.577350 0.577350
vn -0.577350 0.577350 0.577350
vn -0.577350 0.577350 0.577350
vn -0.934172 -0.356822 0.000000
vn -0.934172 -0.356822 0.000000
vn -0.934172 -0.356822 0.000000
vn -0.934172 0.356822 0.000000
vn -0.934172 0.356822 0.000000
vn -0.934172 0.356822 0.000000
vn 0.500000 0.309017 0.809017
vn 0.500000 0.309017 0.809017
vn 0.500000 0.309017 0.809017
vn 0.500000 0.309017 0.809017
vn 0.500000 -0.309017 0.809017
vn 0.500000 -0.309017 0.809017
vn 0.500000 -0.309017 0.809017
vn 0.500000 -0.309017 0.809017
vn 0.809017 -0.500000 0.309017
vn 0.809017 -0.500000 0.309017
vn 0.809017 -0.500000 0.309017
vn 0.809017 -0.500000 0.309017
vn 1.000000 0.000000 0.000000
vn 1.000000 0.000000 0.000000
vn 1.000000 0.000000 0.000000
vn 1.000000 0.000000 0.000000
vn 0.809017 0.500000 0.309017
vn 0.809017 0.500000 0.309017
vn 0.809017 0.500000 0.309017
vn 0.809017 0.500000 0.309017
vn 0.000000 -1.000000 0.000000
vn 0.000000 -1.000000 0.000000
vn 0.000000 -1.000000 0.000000
vn 0.000000 -1.000000 0.000000
vn 0.309017 -0.809017 -0.500000
vn 0.309017 -0.809017 -0.500000
vn 0.309017 -0.809017 -0.500000
vn 0.309017 -0.809017 -0.500000
vn 0.809017 -0.500000 -0.309017
vn 0.809017 -0.500000 -0.309017
vn 0.809017 -0.500000 -0.309017
vn 0.809017 -0.500000 -0.309017
vn 0.309017 -0.809017 0.500000
vn 0.309017 -0.809017 0.500000
vn 0.309017 -0.809017 0.500000
vn 0.309017 -0.809017 0.500000
vn 0.500000 0.309017 -0.809017
vn 0.500000 0.309017 -0.809017
vn 0.500000 0.309017 -0.809017
vn 0.500000 0.309017 -0.809017
vn 0.809017 0.500000 -0.309017
vn 0.809017 0.500000 -0.309017
vn 0.809017 0.500000 -0.309017
vn 0.809017 0.500000 -0.309017
vn 0.500000 -0.309017 -0.809017
vn 0.500000 -0.309017 -0.809017
vn 0.500000 -0.309017 -0.809017
vn 0.500000 -0.309017 -0.809017
vn 0.000000 1.000000 0.000000
vn 0.000000 1.000000 0.000000
vn 0.000000 1.000000 0.000000
vn 0.000000 1.000000 0.000000
vn 0.309017 0.809017 0.500000
vn 0.309017 0.809017 0.500000
vn 0.309017 0.809017 0.500000
vn 0.309017 0.809017 0.500000
vn 0.309017 0.809017 -0.500000
vn 0.309017 0.809017 -0.500000
vn 0.309017 0.809017 -0.500000
vn 0.309017 0.809017 -0.500000
vn -0.309017 -0.809017 -0.500000
vn -0.309017 -0.809017 -0.500000
vn -0.309017 -0.809017 -0.500000
vn -0.309017 -0.809017 -0.500000
vn -0.500000 -0.309017 -0.809017
vn -0.500000 -0.309017 -0.809017
vn -0.500000 -0.309017 -0.809017
vn -0.500000 -0.309017 -0.809017
vn 0.000000 0.000000 -1.000000
vn 0.000000 0.000000 -1.000000
vn 0.000000 0.000000 -1.000000
vn 0.000000 0.000000 -1.000000
vn -0.309017 0.809017 -0.500000
vn -0.309017 0.809017 -0.500000
vn -0.309017 0.809017 -0.500000
vn -0.309017 0.809017 -0.500000
vn -0.500000 0.309017 -0.809017
vn -0.500000 0.309017 -0.809017
vn -0.500000 0.309017 -0.809017
vn -0.500000 0.309017 -0.809017
vn -0.309017 -0.809017 0.500000
vn -0.309017 -0.809017 0.500000
vn -0.309017 -0.809017 0.500000
vn -0.309017 -0.809017 0.500000
vn 0.000000 0.000000 1.000000
vn 0.000000 0.000000 1.000000
vn 0.000000 0.000000 1.000000
vn 0.000000 0.000000 1.000000
vn -0.500000 -0.309017 0.809017
vn -0.500000 -0.309017 0.809017
vn -0.500000 -0.309017 0.809017
vn -0.500000 -0.309017 0.809017
vn -0.309017 0.809017 0.500000
vn -0.309017 0.809017 0.500000
vn -0.309017 0.809017 0.500000
vn -0.309017 0.809017 0.500000
vn -0.500000 0.309017 0.809017
vn -0.500000 0.309017 0.809017
vn -0.500000 0.309017 0.809017
vn -0.500000 0.309017 0.809017
vn -0.809017 -0.500000 -0.309017
vn -0.809017 -0.500000 -0.309017
vn -0.809017 -0.500000 -0.309017
vn -0.809017 -0.500000 -0.309017
vn -1.000000 0.000000 0.000000
vn -1.000000 0.000000 0.000000
vn -1.000000 0.000000 0.000000
vn -1.000000 0.000000 0.000000
vn -0.809017 0.500000 -0.309017
vn -0.809017 0.500000 -0.309017
vn -0.809017 0.500000 -0.309017
vn -0.809017 0.500000 -0.309017
vn -0.809017 -0.500000 0.309017
vn -0.809017 -0.500000 0.309017
vn -0.809017 -0.500000 0.309017
vn -0.809017 -0.500000 0.309017
vn -0.809017 0.500000 0.309017
vn -0.809017 0.500000 0.309017
vn -0.809017 0.500000 0.309017
vn -0.809017 0.500000 0.309017
vn 0.850651 0.000000 0.525731
vn 0.850651 0.000000 0.525731
vn 0.850651 0.000000 0.525731
vn 0.850651 0.000000 0.525731
vn 0.850651 0.000000 0.525731
vn 0.525731 -0.850651 0.000001
vn 0.525731 -0.850651 0.000001
vn 0.525731 -0.850651 0.000001
vn 0.525731 -0.850651 0.000001
vn 0.525731 -0.850651 0.000001
vn 0.850651 -0.000000 -0.525731
vn 0.850651 -0.000000 -0.525731
vn 0.850651 -0.000000 -0.525731
vn 0.850651 -0.000000 -0.525731
vn 0.850651 -0.000000 -0.525731
vn 0.525731 0.850651 -0.000001
vn 0.525731 0.850651 -0.000001
vn 0.525731 0.850651 -0.000001
vn 0.525731 0.850651 -0.000001
vn 0.525731 0.850651 -0.000001
vn 0.000000 -0.525731 -0.850651
vn 0.000000 -0.525731 -0.850651
vn 0.000000 -0.525731 -0.850651
vn 0.000000 -0.525731 -0.850651
vn 0.000000 -0.525731 -0.850651
vn 0.000000 0.525731 -0.850651
vn 0.000000 0.525731 -0.850651
vn 0.000000 0.525731 -0.850651
vn 0.000000 0.525731 -0.850651
vn 0.000000 0.525731 -0.850651
vn 0.000000 -0.525731 0.850651
vn 0.000000 -0.525731 0.850651
vn 0.000000 -0.525731 0.850651
vn 0.000000 -0.525731 0.850651
vn 0.000000 -0.525731 0.850651
vn 0.000000 0.525731 0.850651
vn 0.000000 0.525731 0.850651
vn 0.000000 0.525731 0.850651
vn 0.000000 0.525731 0.850651
vn 0.000000 0.525731 0.850651
vn -0.850651 0.000000 -0.525731
vn -0.850651 0.000000 -0.525731
vn -0.850651 0.000000 -0.525731
vn -0.850651 0.000000 -0.525731
vn -0.850651 0.000000 -0.525731
vn -0.525731 -0.850651 -0.000001
vn -0.525731 -0.850651 -0.000001
vn -0.525731 -0.850651 -0.000001
vn -0.525731 -0.850651 -0.000001
vn -0.525731 -0.850651 -0.000001
vn -0.850651 0.000000 0.525731
vn -0.850651 0.000000 0.525731
vn -0.850651 0.000000 0.525731
vn -0.850651 0.000000 0.525731
vn -0.850651 0.000000 0.525731
vn -0.525731 0.850651 0.000001
vn -0.525731 0.850651 0.000001
vn -0.525731 0.850651 0.000001
vn -0.525731 0.850651 0.000001
vn -0.525731 0.850651 0.000001
s off
g pSolid1
f 39/95/1 34/96/2 2/97/3
f 33/99/4 10/1/5 3/14/6
f 9/21/7 14/65/8 4/57/9
f 13/25/10 19/68/11 5/153/12
f 18/152/13 40/131/14 1/15/15
f 46/103/16 21/3/17 7/4/18
f 25/106/19 15/5/20 8/18/21
f 32/41/22 47/85/23 6/6/24
f 28/147/25 20/126/26 12/150/27
f 24/35/28 29/73/29 11/148/30
f 56/7/31 36/31/32 17/67/33
f 27/124/34 57/9/35 16/125/36
f 50/140/37 43/138/38 22/142/39
f 42/139/40 30/122/41 23/141/42
f 41/10/43 58/37/44 26/121/45
f 38/46/46 52/129/47 35/133/48
f 51/136/49 48/137/50 31/132/51
f 60/11/52 53/47/53 37/79/54
f 49/50/55 55/89/56 44/118/57
f 54/116/58 59/93/59 45/84/60
f 2/97/61 1/13/62 40/80/63 39/95/64
f 3/14/65 2/12/66 34/98/67 33/99/68
f 4/57/69 3/56/70 10/62/71 9/21/72
f 5/112/73 4/57/74 14/65/75 13/111/76
f 1/15/77 5/58/78 19/151/79 18/152/80
f 7/16/81 6/6/82 47/85/83 46/17/84
f 8/18/85 7/19/86 21/20/87 25/106/88
f 9/21/89 8/61/90 15/66/91 14/65/92
f 6/22/93 10/1/94 33/99/95 32/24/96
f 12/150/97 11/26/98 29/146/99 28/147/100
f 13/25/101 12/64/102 20/149/103 19/68/104
f 11/108/105 15/5/106 25/106/107 24/107/108
f 17/67/109 16/28/110 57/29/111 56/7/112
f 18/127/113 17/67/114 36/31/115 40/2/116
f 16/125/117 20/69/118 28/123/119 27/124/120
f 22/105/121 21/3/122 46/103/123 50/104/124
f 23/141/125 22/71/126 43/145/127 42/139/128
f 24/35/129 23/72/130 30/144/131 29/73/132
f 27/36/133 26/121/134 58/37/135 57/38/136
f 26/121/137 30/74/138 42/130/139 41/10/140
f 32/41/141 31/102/142 48/100/143 47/85/144
f 35/133/145 34/76/146 39/42/147 38/46/148
f 31/132/149 35/77/150 52/134/151 51/136/152
f 37/79/153 36/44/154 56/45/155 60/11/156
f 38/119/157 37/79/158 53/47/159 52/87/160
f 44/118/161 43/82/162 50/48/163 49/50/164
f 45/84/165 44/83/166 55/115/167 54/116/168
f 41/49/169 45/84/170 59/93/171 58/92/172
f 49/50/173 48/86/174 51/51/175 55/89/176
f 54/116/177 53/53/178 60/54/179 59/93/180
f 1/15/181 2/55/182 3/114/183 4/113/184 5/58/185
f 6/59/186 7/60/187 8/61/188 9/21/189 10/62/190
f 11/63/191 12/64/192 13/25/193 14/110/194 15/109/195
f 16/32/196 17/128/197 18/30/198 19/68/199 20/149/200
f 21/70/201 22/143/202 23/72/203 24/35/204 25/27/205
f 26/39/206 27/8/207 28/33/208 29/73/209 30/144/210
f 31/43/211 32/75/212 33/23/213 34/76/214 35/133/215
f 36/78/216 37/120/217 38/46/218 39/42/219 40/94/220
f 41/81/221 42/40/222 43/82/223 44/118/224 45/117/225
f 46/34/226 47/101/227 48/86/228 49/50/229 50/48/230
f 51/51/231 52/135/232 53/88/233 54/52/234 55/89/235
f 56/90/236 57/91/237 58/92/238 59/93/239 60/54/240
